<svg id="Capa_1" data-name="Capa 1" xmlns="http://www.w3.org/2000/svg" xmlns:xlink="http://www.w3.org/1999/xlink" viewBox="0 0 292 125"><defs><style>.cls-1{fill:none;}.cls-2{fill:#65a428;}.cls-3{clip-path:url(#clip-path);}.cls-4{fill:url(#Degradado_sin_nombre_2);}.cls-5{clip-path:url(#clip-path-2);}.cls-6{fill:url(#Degradado_sin_nombre_2-2);}</style><clipPath id="clip-path"><path class="cls-1" d="M18.23,64.13a15.36,15.36,0,0,1-2.17-1.68,15.15,15.15,0,0,0,2.17,1.68"/></clipPath><radialGradient id="Degradado_sin_nombre_2" cx="-210.3" cy="910.66" r="1" gradientTransform="matrix(50.62, 0, 0, -50.62, 10709.62, 46151.48)" gradientUnits="userSpaceOnUse"><stop offset="0" stop-color="#d8da00"/><stop offset="0.36" stop-color="#d5d905"/><stop offset="0.77" stop-color="#ccd613"/><stop offset="1" stop-color="#c5d31e"/></radialGradient><clipPath id="clip-path-2"><path class="cls-1" d="M47.08,88.09a4.16,4.16,0,1,1,4.16,4.16,4.16,4.16,0,0,1-4.16-4.16m24.76,0A4.16,4.16,0,1,1,76,92.25a4.16,4.16,0,0,1-4.16-4.16M35.24.36l-9.9,25.46,1,0a25.6,25.6,0,1,1-11,48.74L14,97.81l37.93,4.93,6.05.79,10.93,0,6.39-.83,37.93-4.93-1.36-23.27a25.6,25.6,0,1,1-11-48.74l1,0L92,.36Z"/></clipPath><radialGradient id="Degradado_sin_nombre_2-2" cx="-209.1" cy="900.83" r="1" gradientTransform="matrix(646.77, 0, 0, -646.77, 135305.2, 582064.91)" xlink:href="#Degradado_sin_nombre_2"/></defs><title>Mesa de trabajo 2 copia</title><path class="cls-2" d="M174.63,32.54a3.31,3.31,0,0,1,.93,2.44V65.26a17.11,17.11,0,0,1-2.37,9.33,14.26,14.26,0,0,1-6.43,5.54,22.47,22.47,0,0,1-9.15,1.79,25.9,25.9,0,0,1-6.44-1q-3.68-1-4.71-2-2.13-1.1-2.13-2.75a3.15,3.15,0,0,1,.28-1.1,2.6,2.6,0,0,1,2.55-1.72,5.22,5.22,0,0,1,1.93.41,25.89,25.89,0,0,0,8.6,2.13q5.5,0,8.43-2.65A9.31,9.31,0,0,0,169,66V62.3a12,12,0,0,1-4.85,4.61A14.4,14.4,0,0,1,157,68.84a16.24,16.24,0,0,1-8.67-2.41,16.76,16.76,0,0,1-6.16-6.71,20.64,20.64,0,0,1-2.24-9.67,20.64,20.64,0,0,1,2.24-9.67,16.86,16.86,0,0,1,6.13-6.71,16,16,0,0,1,8.57-2.41A15.67,15.67,0,0,1,169,37.19V35a3.4,3.4,0,0,1,.89-2.41,3,3,0,0,1,2.34-1,3.21,3.21,0,0,1,2.38.93M163.73,61.17a11.09,11.09,0,0,0,4.09-4.54,14.35,14.35,0,0,0,1.48-6.57,14.14,14.14,0,0,0-1.48-6.54A11.39,11.39,0,0,0,163.73,39a11,11,0,0,0-6-1.65A10.85,10.85,0,0,0,151.82,39a11.32,11.32,0,0,0-4.09,4.58,15,15,0,0,0,0,13,11.32,11.32,0,0,0,4.09,4.58,10.85,10.85,0,0,0,5.92,1.65,11.15,11.15,0,0,0,6-1.62"/><path class="cls-2" d="M214.51,50.85a3.3,3.3,0,0,1-2.27.86H188a12,12,0,0,0,3.82,8.05,11.69,11.69,0,0,0,8.15,3,12.77,12.77,0,0,0,5.37-1A13.48,13.48,0,0,0,209,59.34a3.89,3.89,0,0,1,2-.62,2.61,2.61,0,0,1,2,.83,2.7,2.7,0,0,1,.79,1.93,3.4,3.4,0,0,1-1.38,2.62,16.22,16.22,0,0,1-5.3,3.37,17.4,17.4,0,0,1-6.74,1.38,19.92,19.92,0,0,1-9.81-2.34A16.3,16.3,0,0,1,184,60a19.39,19.39,0,0,1-2.31-9.5,20.93,20.93,0,0,1,2.37-10.15,17.21,17.21,0,0,1,6.26-6.71,16.13,16.13,0,0,1,16.62-.07,17.27,17.27,0,0,1,6.19,6.26,17.88,17.88,0,0,1,2.41,8.95,2.94,2.94,0,0,1-1,2.1M192,39.49a10.66,10.66,0,0,0-3.72,6.71h20.3v-.55a8.41,8.41,0,0,0-3.27-6,10.35,10.35,0,0,0-6.64-2.34A10.64,10.64,0,0,0,192,39.49"/><path class="cls-2" d="M252.23,64.85a2.94,2.94,0,0,1-1.07,2.31,3.37,3.37,0,0,1-2.24.93,2.94,2.94,0,0,1-2.41-1.1L233,52.6l-4.13,3.72v8.53a3.24,3.24,0,0,1-.93,2.34,3.07,3.07,0,0,1-2.3,1,3.15,3.15,0,0,1-2.37-1,3.25,3.25,0,0,1-.93-2.34V20.53a3.25,3.25,0,0,1,.93-2.34,3.15,3.15,0,0,1,2.37-1,3.07,3.07,0,0,1,2.3,1,3.25,3.25,0,0,1,.93,2.34V48.47L245.69,33a3.63,3.63,0,0,1,2.41-1,2.92,2.92,0,0,1,2.13,1,3,3,0,0,1,1,2.1,3.2,3.2,0,0,1-1.31,2.48L238,48.13,251.2,62.44a3.46,3.46,0,0,1,1,2.41"/><path class="cls-2" d="M288.77,59.76a17.49,17.49,0,0,1-6.57,6.68,18.72,18.72,0,0,1-18.37,0,17.47,17.47,0,0,1-6.57-6.68,19.24,19.24,0,0,1-2.41-9.63,19.63,19.63,0,0,1,2.41-9.7,17.36,17.36,0,0,1,6.57-6.74,18.73,18.73,0,0,1,18.38,0,17.38,17.38,0,0,1,6.57,6.74,19.64,19.64,0,0,1,2.41,9.7,19.25,19.25,0,0,1-2.41,9.63M283.1,43.48a11.51,11.51,0,0,0-4.2-4.54,11.51,11.51,0,0,0-11.77,0,11.5,11.5,0,0,0-4.2,4.54,14,14,0,0,0-1.55,6.64,13.62,13.62,0,0,0,1.55,6.54,11.54,11.54,0,0,0,4.2,4.51,11.51,11.51,0,0,0,11.77,0,11.55,11.55,0,0,0,4.2-4.51,13.62,13.62,0,0,0,1.55-6.54,14,14,0,0,0-1.55-6.64"/><polygon class="cls-2" points="57.98 103.53 51.93 102.74 51.93 124.92 63.68 118.87 75.31 124.92 75.31 102.74 68.92 103.57 57.98 103.53"/><g class="cls-3"><rect class="cls-4" x="16.06" y="62.45" width="2.17" height="1.68"/></g><g class="cls-5"><rect class="cls-6" x="14" y="0.36" width="99.24" height="103.21"/></g><path class="cls-2" d="M51.91,51.4a25.63,25.63,0,0,0-25.6-25.6l-1,0A25.6,25.6,0,1,0,51.91,51.4M24.14,66.32c-.26,0-.51-.07-.77-.12s-.6-.14-.89-.22L22,65.86c-.35-.1-.69-.23-1-.36l-.29-.11c-.38-.15-.75-.33-1.11-.51l-.14-.07q-.58-.3-1.14-.65l0,0a15.06,15.06,0,0,1,2.63-26.79c.42-.16.85-.31,1.29-.44h0q.64-.18,1.3-.31l.34-.05c.35-.06.69-.12,1-.15s1-.07,1.46-.07a15.1,15.1,0,1,1,0,30.19c-.51,0-1,0-1.5-.08-.23,0-.45-.07-.68-.1"/><rect class="cls-2" x="20.6" y="44.41" width="10.51" height="13.93"/><rect class="cls-2" x="95.67" y="44.44" width="10.51" height="13.93"/><path class="cls-2" d="M51.24,83.93a4.16,4.16,0,1,0,4.16,4.16,4.16,4.16,0,0,0-4.16-4.16"/><path class="cls-2" d="M76,83.93a4.16,4.16,0,1,0,4.16,4.16A4.16,4.16,0,0,0,76,83.93"/><path class="cls-2" d="M126.53,51.4a25.63,25.63,0,0,0-24.64-25.58l-1,0a25.6,25.6,0,1,0,25.6,25.6M111.17,62.45A15.22,15.22,0,0,1,109,64.13l0,0c-.37.23-.75.45-1.14.65l-.14.07c-.36.18-.73.35-1.11.51l-.29.11c-.34.13-.68.25-1,.36l-.49.13c-.3.08-.59.16-.89.22s-.51.08-.77.12-.45.08-.68.1c-.49,0-1,.08-1.5.08a15.1,15.1,0,0,1,0-30.19c.49,0,1,0,1.46.07s.7.09,1,.15l.34.05c.44.09.87.19,1.29.31h0q.66.19,1.29.44a15.05,15.05,0,0,1,4.81,25.11"/></svg>