<?xml version="1.0" encoding="UTF-8" standalone="no"?>
<svg
   xmlns:dc="http://purl.org/dc/elements/1.1/"
   xmlns:cc="http://creativecommons.org/ns#"
   xmlns:rdf="http://www.w3.org/1999/02/22-rdf-syntax-ns#"
   xmlns:svg="http://www.w3.org/2000/svg"
   xmlns="http://www.w3.org/2000/svg"
   xmlns:sodipodi="http://sodipodi.sourceforge.net/DTD/sodipodi-0.dtd"
   xmlns:inkscape="http://www.inkscape.org/namespaces/inkscape"
   inkscape:version="1.0 (6e3e5246a0, 2020-05-07)"
   sodipodi:docname="login_cloud.svg"
   xml:space="preserve"
   style="enable-background:new 0 0 184.3 193.8;"
   viewBox="0 0 184.3 193.8"
   y="0px"
   x="0px"
   id="Colores_Corporativos"
   version="1.1"><metadata
   id="metadata34"><rdf:RDF><cc:Work
       rdf:about=""><dc:format>image/svg+xml</dc:format><dc:type
         rdf:resource="http://purl.org/dc/dcmitype/StillImage" /><dc:title></dc:title></cc:Work></rdf:RDF></metadata><defs
   id="defs32" /><sodipodi:namedview
   inkscape:current-layer="Colores_Corporativos"
   inkscape:window-maximized="1"
   inkscape:window-y="0"
   inkscape:window-x="0"
   inkscape:cy="109.24395"
   inkscape:cx="92.150002"
   inkscape:zoom="3.240454"
   showgrid="false"
   id="namedview30"
   inkscape:window-height="739"
   inkscape:window-width="1360"
   inkscape:pageshadow="2"
   inkscape:pageopacity="0"
   guidetolerance="10"
   gridtolerance="10"
   objecttolerance="10"
   borderopacity="1"
   bordercolor="#666666"
   pagecolor="#ffffff" />
<style
   id="style2"
   type="text/css">
	.st0{fill:#65A428;}
	.st1{fill:#D8DA00;}
	.st2{fill:#9D9D9C;}
	.st3{fill:url(#SVGID_1_);}
	.st4{fill:url(#SVGID_2_);}
	.st5{fill:url(#SVGID_3_);}
	.st6{fill:url(#SVGID_4_);}
	.st7{fill:url(#SVGID_5_);}
	.st8{fill:url(#SVGID_6_);}
	.st9{fill:#FFFFFF;}
	.st10{fill:url(#SVGID_7_);}
	.st11{fill:url(#SVGID_8_);}
	.st12{fill:url(#SVGID_9_);}
	.st13{fill:url(#SVGID_10_);}
	.st14{fill:url(#SVGID_11_);}
	.st15{fill:url(#SVGID_12_);}
	.st16{fill:url(#SVGID_13_);}
	.st17{fill:url(#SVGID_14_);}
</style>
<g
   transform="matrix(0.73700306,0,0,0.73700306,24.235168,25.471254)"
   id="g27">
	<polygon
   id="polygon4"
   points="76.8,149.5 76.8,178.6 92.2,170.7 107.5,178.6 107.5,149.5 99.1,150.6 84.8,150.5 "
   class="st9" />
	<path
   id="path6"
   d="m 29.7,96.6 c 0.9,0.8 1.8,1.6 2.8,2.2 -0.9,-0.6 -1.9,-1.4 -2.8,-2.2 z"
   class="st9" />
	<radialGradient
   gradientUnits="userSpaceOnUse"
   r="66.445999"
   cy="82.865097"
   cx="92.167603"
   id="SVGID_1_">
		<stop
   id="stop8"
   style="stop-color:#D8DA00"
   offset="0" />
		<stop
   id="stop10"
   style="stop-color:#C5D31E"
   offset="1" />
	</radialGradient>
	<path
   style="fill:url(#SVGID_1_)"
   id="path13"
   d="m 155.5,112.5 c -4.4,2.1 -9.2,3.2 -14.4,3.2 -18.5,0 -33.6,-15.1 -33.6,-33.6 0,-18.5 15.1,-33.6 33.6,-33.6 0.4,0 0.8,0 1.3,0 l -13,-33.4 H 54.9 l -13,33.4 c 0.4,0 0.8,0 1.3,0 18.5,0 33.6,15.1 33.6,33.6 0,18.5 -15.1,33.6 -33.6,33.6 -5.1,0 -10,-1.2 -14.4,-3.2 L 27,143 l 49.8,6.5 7.9,1 14.3,0.1 8.4,-1.1 49.8,-6.5 z m -79.6,23.2 c -3,0 -5.5,-2.4 -5.5,-5.5 0,-3.1 2.4,-5.5 5.5,-5.5 3,0 5.5,2.4 5.5,5.5 0,3.1 -2.5,5.5 -5.5,5.5 z m 32.5,0 c -3,0 -5.5,-2.4 -5.5,-5.5 0,-3.1 2.4,-5.5 5.5,-5.5 3.1,0 5.5,2.4 5.5,5.5 0,3.1 -2.5,5.5 -5.5,5.5 z"
   class="st3" />
	<path
   id="path15"
   d="m 76.8,82.1 c 0,-18.5 -15.1,-33.6 -33.6,-33.6 -0.4,0 -0.8,0 -1.3,0 C 24,49.2 9.6,64 9.6,82.1 c 0,13.4 7.9,25 19.2,30.4 4.4,2.1 9.2,3.2 14.4,3.2 18.5,0 33.6,-15 33.6,-33.6 z m -36.5,19.6 c -0.3,0 -0.7,-0.1 -1,-0.2 -0.4,-0.1 -0.8,-0.2 -1.2,-0.3 -0.2,-0.1 -0.4,-0.1 -0.6,-0.2 -0.5,-0.1 -0.9,-0.3 -1.4,-0.5 -0.1,0 -0.3,-0.1 -0.4,-0.1 -0.5,-0.2 -1,-0.4 -1.5,-0.7 -0.1,0 -0.1,-0.1 -0.2,-0.1 -0.5,-0.3 -1,-0.6 -1.5,-0.9 0,0 0,0 -0.1,0 -1,-0.6 -2,-1.4 -2.8,-2.2 -3.9,-3.6 -6.4,-8.8 -6.4,-14.5 0,-8.4 5.3,-15.6 12.7,-18.5 0.6,-0.2 1.1,-0.4 1.7,-0.6 0,0 0,0 0,0 0.6,-0.2 1.1,-0.3 1.7,-0.4 0.1,0 0.3,0 0.4,-0.1 0.5,-0.1 0.9,-0.2 1.4,-0.2 0.6,-0.1 1.3,-0.1 1.9,-0.1 10.9,0 19.8,8.9 19.8,19.8 0,10.9 -8.9,19.8 -19.8,19.8 -0.7,0 -1.3,0 -2,-0.1 -0.1,0.2 -0.4,0.2 -0.7,0.1 z"
   class="st9" />
	<rect
   id="rect17"
   height="18.299999"
   width="13.8"
   class="st9"
   y="73"
   x="35.700001" />
	<rect
   id="rect19"
   height="18.299999"
   width="13.8"
   class="st9"
   y="73"
   x="134.2" />
	<circle
   id="circle21"
   r="5.5"
   cy="130.3"
   cx="75.900002"
   class="st9" />
	<circle
   id="circle23"
   r="5.5"
   cy="130.3"
   cx="108.4"
   class="st9" />
	<path
   id="path25"
   d="m 174.7,82.1 c 0,-18.1 -14.4,-32.9 -32.3,-33.6 -0.4,0 -0.8,0 -1.3,0 -18.5,0 -33.6,15.1 -33.6,33.6 0,18.5 15.1,33.6 33.6,33.6 5.1,0 10,-1.2 14.4,-3.2 11.4,-5.4 19.2,-17 19.2,-30.4 z m -20.1,14.5 c -0.9,0.8 -1.8,1.6 -2.8,2.2 0,0 0,0 -0.1,0 -0.5,0.3 -1,0.6 -1.5,0.9 -0.1,0 -0.1,0.1 -0.2,0.1 -0.5,0.2 -1,0.5 -1.5,0.7 -0.1,0.1 -0.3,0.1 -0.4,0.1 -0.4,0.2 -0.9,0.3 -1.3,0.5 -0.2,0.1 -0.4,0.1 -0.6,0.2 -0.4,0.1 -0.8,0.2 -1.2,0.3 -0.3,0.1 -0.7,0.1 -1,0.2 -0.3,0 -0.6,0.1 -0.9,0.1 -0.6,0.1 -1.3,0.1 -2,0.1 -10.9,0 -19.8,-8.9 -19.8,-19.8 0,-10.9 8.9,-19.8 19.8,-19.8 0.6,0 1.3,0 1.9,0.1 0.5,0 0.9,0.1 1.4,0.2 0.1,0 0.3,0 0.4,0.1 0.6,0.1 1.1,0.2 1.7,0.4 0,0 0,0 0,0 0.6,0.2 1.1,0.4 1.7,0.6 7.4,2.9 12.7,10.1 12.7,18.5 0,5.6 -2.4,10.7 -6.3,14.3 z"
   class="st9" />
</g>
</svg>
