<?xml version="1.0" encoding="utf-8"?>
<!-- Generator: Adobe Illustrator 21.0.2, SVG Export Plug-In . SVG Version: 6.00 Build 0)  -->
<svg version="1.1" id="Colores_Corporativos" xmlns="http://www.w3.org/2000/svg" xmlns:xlink="http://www.w3.org/1999/xlink"
	 x="0px" y="0px" viewBox="0 0 395.9 193.8" style="enable-background:new 0 0 395.9 193.8;" xml:space="preserve">
<style type="text/css">
	.st0{fill:#65A428;}
	.st1{fill:#D8DA00;}
	.st2{fill:#9D9D9C;}
	.st3{fill:url(#SVGID_1_);}
	.st4{fill:url(#SVGID_2_);}
	.st5{fill:url(#SVGID_3_);}
	.st6{fill:url(#SVGID_4_);}
	.st7{fill:url(#SVGID_5_);}
	.st8{fill:url(#SVGID_6_);}
	.st9{fill:#FFFFFF;}
	.st10{fill:url(#SVGID_7_);}
	.st11{fill:url(#SVGID_8_);}
	.st12{fill:url(#SVGID_9_);}
	.st13{fill:url(#SVGID_10_);}
	.st14{fill:url(#SVGID_11_);}
	.st15{fill:url(#SVGID_12_);}
	.st16{fill:url(#SVGID_13_);}
	.st17{fill:url(#SVGID_14_);}
</style>
<path class="st9" d="M235.6,57.4c0.8,0.8,1.2,1.9,1.2,3.2v39.7c0,4.9-1,9-3.1,12.2c-2.1,3.3-4.9,5.7-8.4,7.3
	c-3.6,1.6-7.6,2.3-12,2.3c-2.4,0-5.2-0.4-8.4-1.3c-3.2-0.8-5.3-1.7-6.2-2.6c-1.9-1-2.8-2.2-2.8-3.6c0-0.4,0.1-0.8,0.4-1.4
	c0.7-1.5,1.8-2.3,3.3-2.3c0.8,0,1.6,0.2,2.5,0.5c4.8,1.9,8.6,2.8,11.3,2.8c4.8,0,8.5-1.2,11.1-3.5c2.6-2.3,3.8-5.5,3.8-9.5v-4.9
	c-1.3,2.3-3.4,4.4-6.4,6.1c-3,1.7-6.1,2.5-9.4,2.5c-4.2,0-7.9-1.1-11.4-3.2c-3.4-2.1-6.1-5-8.1-8.8c-2-3.8-2.9-8-2.9-12.7
	s1-8.9,2.9-12.7c2-3.8,4.6-6.7,8-8.8c3.4-2.1,7.2-3.2,11.2-3.2c3.3,0,6.4,0.8,9.3,2.3c2.9,1.5,5.1,3.3,6.7,5.5v-2.9
	c0-1.3,0.4-2.3,1.2-3.2c0.8-0.8,1.8-1.3,3.1-1.3C233.7,56.1,234.8,56.6,235.6,57.4z M221.3,94.9c2.3-1.4,4.1-3.4,5.4-6
	c1.3-2.6,1.9-5.4,1.9-8.6c0-3.2-0.6-6.1-1.9-8.6c-1.3-2.5-3.1-4.5-5.4-6c-2.3-1.4-4.9-2.2-7.9-2.2c-2.9,0-5.5,0.7-7.8,2.2
	c-2.3,1.4-4.1,3.4-5.4,6c-1.3,2.6-1.9,5.4-1.9,8.5c0,3.1,0.6,6,1.9,8.5c1.3,2.6,3.1,4.6,5.4,6c2.3,1.4,4.9,2.2,7.8,2.2
	C216.4,97.1,219,96.4,221.3,94.9z"/>
<path class="st9" d="M287.9,81.4c-0.8,0.8-1.8,1.1-3,1.1h-31.8c0.4,4.4,2.1,7.9,5,10.6c2.9,2.7,6.5,4,10.7,4c2.9,0,5.2-0.4,7-1.3
	c1.8-0.8,3.4-1.9,4.8-3.3c0.9-0.5,1.8-0.8,2.6-0.8c1,0,1.9,0.4,2.6,1.1c0.7,0.7,1,1.6,1,2.5c0,1.3-0.6,2.4-1.8,3.4
	c-1.7,1.7-4.1,3.2-7,4.4c-2.9,1.2-5.8,1.8-8.9,1.8c-4.9,0-9.2-1-12.9-3.1c-3.7-2-6.6-4.9-8.6-8.6c-2-3.7-3-7.8-3-12.5
	c0-5.1,1-9.5,3.1-13.3c2.1-3.8,4.8-6.8,8.2-8.8c3.4-2,7.1-3.1,11-3.1c3.9,0,7.5,1,10.8,3c3.4,2,6.1,4.7,8.1,8.2
	c2,3.5,3.1,7.4,3.2,11.7C289.2,79.7,288.8,80.6,287.9,81.4z M258.4,66.5c-2.5,1.9-4.1,4.8-4.9,8.8h26.6v-0.7
	c-0.3-3.2-1.7-5.8-4.3-7.9c-2.6-2-5.5-3.1-8.7-3.1C263.8,63.6,260.9,64.6,258.4,66.5z"/>
<path class="st9" d="M337.4,99.8c0,1.2-0.5,2.2-1.4,3c-0.9,0.8-1.9,1.2-2.9,1.2c-1.3,0-2.4-0.5-3.2-1.4l-17.8-18.9l-5.4,4.9v11.2
	c0,1.2-0.4,2.2-1.2,3.1c-0.8,0.8-1.8,1.3-3,1.3c-1.3,0-2.3-0.4-3.1-1.3c-0.8-0.8-1.2-1.9-1.2-3.1V41.6c0-1.2,0.4-2.2,1.2-3.1
	c0.8-0.8,1.9-1.3,3.1-1.3c1.2,0,2.2,0.4,3,1.3c0.8,0.8,1.2,1.9,1.2,3.1v36.7L328.9,58c1-0.9,2.1-1.4,3.2-1.4c1,0,2,0.4,2.8,1.3
	c0.8,0.9,1.3,1.8,1.3,2.8c0,1.2-0.6,2.3-1.7,3.3l-15.6,13.9l17.3,18.8C337,97.6,337.4,98.6,337.4,99.8z"/>
<path class="st9" d="M385.4,93.1c-2.1,3.7-5,6.7-8.6,8.8c-3.6,2.1-7.7,3.2-12.1,3.2c-4.4,0-8.4-1.1-12.1-3.2c-3.6-2.1-6.5-5-8.6-8.8
	c-2.1-3.7-3.2-7.9-3.2-12.6c0-4.7,1.1-8.9,3.2-12.7c2.1-3.8,5-6.7,8.6-8.9c3.6-2.1,7.7-3.2,12.1-3.2c4.4,0,8.4,1.1,12.1,3.2
	c3.6,2.1,6.5,5.1,8.6,8.9c2.1,3.8,3.2,8,3.2,12.7C388.6,85.1,387.5,89.4,385.4,93.1z M378,71.7c-1.4-2.6-3.2-4.5-5.5-6
	c-2.3-1.4-4.9-2.1-7.7-2.1c-2.8,0-5.4,0.7-7.7,2.1c-2.3,1.4-4.2,3.4-5.5,6c-1.4,2.6-2,5.5-2,8.7c0,3.2,0.7,6.1,2,8.6
	c1.4,2.5,3.2,4.5,5.5,5.9c2.3,1.4,4.9,2.1,7.7,2.1c2.8,0,5.4-0.7,7.7-2.1c2.3-1.4,4.2-3.4,5.5-5.9c1.4-2.5,2-5.4,2-8.6
	C380,77.2,379.3,74.3,378,71.7z"/>
<path class="st9" d="M210.1,149.1c1.5,0.4,2.8,0.9,3.7,1.5c0.9,0.6,1.4,1.3,1.4,2c0,0.3-0.1,0.6-0.3,0.8c-0.2,0.2-0.5,0.3-0.8,0.3
	c-0.3,0-0.6-0.1-0.8-0.2c-0.2-0.1-0.4-0.3-0.7-0.6c-0.5-0.6-1-1-1.5-1.3c-1.4-0.6-3.3-1-5.9-1c-2.2,0-4.2,0.6-6.1,1.7
	c-1.9,1.1-3.3,2.7-4.4,4.7c-1.1,2-1.6,4.1-1.6,6.5c0,2.4,0.5,4.7,1.5,6.6c1,2,2.4,3.5,4.3,4.6c1.9,1.1,3.9,1.7,6.3,1.7
	c1.5,0,2.7-0.1,3.6-0.4c0.9-0.3,1.8-0.6,2.6-1.1c0.6-0.4,1.1-0.8,1.6-1.3c0.2-0.2,0.4-0.4,0.6-0.5c0.2-0.1,0.4-0.2,0.6-0.2
	c0.3,0,0.5,0.1,0.7,0.3c0.2,0.2,0.3,0.4,0.3,0.7c0,0.5-0.4,1.2-1.3,1.9c-0.9,0.7-2.1,1.4-3.6,1.9c-1.5,0.5-3.3,0.8-5.2,0.8
	c-2.8,0-5.2-0.6-7.4-2c-2.2-1.3-3.8-3.1-5-5.4c-1.2-2.3-1.8-4.9-1.8-7.7c0-2.7,0.6-5.2,1.8-7.5c1.2-2.3,2.9-4.1,5.1-5.5
	c2.2-1.4,4.7-2.1,7.5-2.1C206.9,148.5,208.5,148.7,210.1,149.1z"/>
<path class="st9" d="M222.2,177.7c-0.2,0.2-0.5,0.3-0.8,0.3c-0.3,0-0.6-0.1-0.8-0.3c-0.2-0.2-0.3-0.5-0.3-0.8v-40.2
	c0-0.3,0.1-0.6,0.3-0.8c0.2-0.2,0.5-0.3,0.8-0.3c0.3,0,0.6,0.1,0.8,0.3c0.2,0.2,0.3,0.5,0.3,0.8v40.2
	C222.6,177.2,222.4,177.5,222.2,177.7z"/>
<path class="st9" d="M253.9,171.3c-1.2,2.3-2.9,4.1-5.1,5.4c-2.2,1.3-4.6,2-7.2,2s-5-0.7-7.2-2c-2.2-1.3-3.9-3.1-5.1-5.4
	c-1.2-2.3-1.9-4.8-1.9-7.6c0-2.8,0.6-5.4,1.9-7.7c1.2-2.3,2.9-4.1,5.1-5.4c2.1-1.3,4.6-2,7.2-2c2.6,0,5,0.7,7.2,2
	c2.2,1.3,3.9,3.1,5.1,5.4c1.2,2.3,1.8,4.9,1.8,7.7C255.8,166.4,255.2,169,253.9,171.3z M252,157c-1-2-2.4-3.5-4.2-4.6
	c-1.8-1.1-3.8-1.7-6.1-1.7c-2.2,0-4.2,0.6-6.1,1.7c-1.8,1.1-3.2,2.7-4.3,4.6c-1,2-1.5,4.2-1.5,6.6c0,2.4,0.5,4.6,1.5,6.5
	c1,2,2.5,3.5,4.3,4.6c1.8,1.1,3.8,1.7,6.1,1.7c2.3,0,4.3-0.6,6.1-1.7c1.8-1.1,3.2-2.6,4.2-4.6c1-2,1.5-4.2,1.5-6.6
	C253.5,161.1,253,158.9,252,157z"/>
<path class="st9" d="M283.5,149.8c0.2,0.2,0.3,0.5,0.3,0.8v16.7c0,3.6-1,6.4-3.1,8.3c-2,1.9-4.8,2.8-8.3,2.8c-3.5,0-6.3-0.9-8.3-2.8
	c-2-1.9-3-4.7-3-8.3v-16.7c0-0.3,0.1-0.6,0.3-0.8c0.2-0.2,0.5-0.3,0.8-0.3c0.3,0,0.6,0.1,0.8,0.3c0.2,0.2,0.3,0.5,0.3,0.8v16.7
	c0,2.9,0.8,5.1,2.4,6.6c1.6,1.5,3.8,2.3,6.7,2.3c2.9,0,5.1-0.8,6.7-2.3c1.6-1.5,2.4-3.8,2.4-6.6v-16.7c0-0.3,0.1-0.6,0.3-0.8
	c0.2-0.2,0.5-0.3,0.8-0.3C283,149.4,283.2,149.5,283.5,149.8z"/>
<path class="st9" d="M315.3,135.9c0.2,0.2,0.3,0.5,0.3,0.8v40.2c0,0.3-0.1,0.6-0.3,0.8c-0.2,0.2-0.5,0.3-0.8,0.3
	c-0.3,0-0.6-0.1-0.8-0.3c-0.2-0.2-0.3-0.5-0.3-0.8v-5.5c-0.9,2-2.4,3.7-4.4,5.1c-2,1.4-4.2,2.1-6.7,2.1c-2.5,0-4.7-0.7-6.8-2
	c-2-1.3-3.6-3.1-4.8-5.4c-1.2-2.3-1.8-4.9-1.8-7.7c0-2.8,0.6-5.4,1.8-7.7c1.2-2.3,2.8-4.1,4.8-5.4c2-1.3,4.3-2,6.8-2
	c2.4,0,4.6,0.7,6.6,2c2,1.3,3.5,3.1,4.4,5.2v-19c0-0.3,0.1-0.6,0.3-0.8c0.2-0.2,0.5-0.3,0.8-0.3
	C314.8,135.6,315.1,135.7,315.3,135.9z M308.2,174.8c1.7-1.1,3-2.6,4-4.6c1-2,1.4-4.2,1.4-6.6c0-2.4-0.5-4.6-1.4-6.6
	c-1-2-2.3-3.5-4-4.6c-1.7-1.1-3.6-1.7-5.7-1.7c-2.1,0-3.9,0.6-5.7,1.7c-1.7,1.1-3,2.6-4,4.6c-1,2-1.5,4.2-1.5,6.6
	c0,2.4,0.5,4.6,1.5,6.6c1,2,2.3,3.5,4,4.6c1.7,1.1,3.6,1.7,5.7,1.7C304.6,176.4,306.5,175.9,308.2,174.8z"/>
<g>
	<polygon class="st9" points="82.5,150.5 74.5,149.5 74.5,178.6 89.9,170.7 105.2,178.6 105.2,149.5 96.8,150.6 	"/>
	<path class="st9" d="M27.4,96.6c0.9,0.8,1.8,1.6,2.8,2.2C29.3,98.2,28.3,97.4,27.4,96.6L27.4,96.6z"/>
	<radialGradient id="SVGID_1_" cx="89.8673" cy="82.8651" r="66.446" gradientUnits="userSpaceOnUse">
		<stop  offset="0" style="stop-color:#D8DA00"/>
		<stop  offset="1" style="stop-color:#C5D31E"/>
	</radialGradient>
	<path class="st3" d="M153.2,112.5c-4.4,2.1-9.2,3.2-14.4,3.2c-18.5,0-33.6-15.1-33.6-33.6c0-18.5,15.1-33.6,33.6-33.6
		c0.4,0,0.8,0,1.3,0l-13-33.4H52.6l-13,33.4c0.4,0,0.8,0,1.3,0c18.5,0,33.6,15.1,33.6,33.6c0,18.5-15.1,33.6-33.6,33.6
		c-5.1,0-10-1.2-14.4-3.2L24.7,143l49.8,6.5l7.9,1l14.3,0.1l8.4-1.1L155,143L153.2,112.5z M73.6,135.7c-3,0-5.5-2.4-5.5-5.5
		s2.4-5.5,5.5-5.5c3,0,5.5,2.4,5.5,5.5S76.6,135.7,73.6,135.7z M106.1,135.7c-3,0-5.5-2.4-5.5-5.5s2.4-5.5,5.5-5.5
		c3,0,5.5,2.4,5.5,5.5S109.1,135.7,106.1,135.7z"/>
	<path class="st9" d="M74.5,82.1c0-18.5-15.1-33.6-33.6-33.6c-0.4,0-0.8,0-1.3,0C21.7,49.2,7.3,64,7.3,82.1c0,13.4,7.9,25,19.2,30.4
		c4.4,2.1,9.2,3.2,14.4,3.2C59.4,115.7,74.5,100.7,74.5,82.1z M38,101.7c-0.3,0-0.7-0.1-1-0.2c-0.4-0.1-0.8-0.2-1.2-0.3
		c-0.2-0.1-0.4-0.1-0.6-0.2c-0.5-0.1-0.9-0.3-1.4-0.5c-0.1,0-0.3-0.1-0.4-0.1c-0.5-0.2-1-0.4-1.5-0.7c-0.1,0-0.1-0.1-0.2-0.1
		c-0.5-0.3-1-0.6-1.5-0.9c0,0,0,0-0.1,0c-1-0.6-2-1.4-2.8-2.2c-3.9-3.6-6.4-8.8-6.4-14.5c0-8.4,5.3-15.6,12.7-18.5
		c0.6-0.2,1.1-0.4,1.7-0.6c0,0,0,0,0,0c0.6-0.2,1.1-0.3,1.7-0.4c0.1,0,0.3,0,0.4-0.1c0.5-0.1,0.9-0.2,1.4-0.2
		c0.6-0.1,1.3-0.1,1.9-0.1c10.9,0,19.8,8.9,19.8,19.8c0,10.9-8.9,19.8-19.8,19.8c-0.7,0-1.3,0-2-0.1C38.6,101.8,38.3,101.8,38,101.7
		z"/>
	<rect x="33.4" y="73" class="st9" width="13.8" height="18.3"/>
	<rect x="131.9" y="73" class="st9" width="13.8" height="18.3"/>
	<circle class="st9" cx="73.6" cy="130.3" r="5.5"/>
	<circle class="st9" cx="106.1" cy="130.3" r="5.5"/>
	<path class="st9" d="M172.4,82.1c0-18.1-14.4-32.9-32.3-33.6c-0.4,0-0.8,0-1.3,0c-18.5,0-33.6,15.1-33.6,33.6
		c0,18.5,15.1,33.6,33.6,33.6c5.1,0,10-1.2,14.4-3.2C164.6,107.1,172.4,95.5,172.4,82.1z M152.3,96.6c-0.9,0.8-1.8,1.6-2.8,2.2
		c0,0,0,0-0.1,0c-0.5,0.3-1,0.6-1.5,0.9c-0.1,0-0.1,0.1-0.2,0.1c-0.5,0.2-1,0.5-1.5,0.7c-0.1,0.1-0.3,0.1-0.4,0.1
		c-0.4,0.2-0.9,0.3-1.3,0.5c-0.2,0.1-0.4,0.1-0.6,0.2c-0.4,0.1-0.8,0.2-1.2,0.3c-0.3,0.1-0.7,0.1-1,0.2c-0.3,0-0.6,0.1-0.9,0.1
		c-0.6,0.1-1.3,0.1-2,0.1c-10.9,0-19.8-8.9-19.8-19.8c0-10.9,8.9-19.8,19.8-19.8c0.6,0,1.3,0,1.9,0.1c0.5,0,0.9,0.1,1.4,0.2
		c0.1,0,0.3,0,0.4,0.1c0.6,0.1,1.1,0.2,1.7,0.4c0,0,0,0,0,0c0.6,0.2,1.1,0.4,1.7,0.6c7.4,2.9,12.7,10.1,12.7,18.5
		C158.6,87.9,156.2,93,152.3,96.6z"/>
</g>
</svg>
