<?xml version="1.0" encoding="UTF-8" standalone="no"?>
<svg
   xmlns:dc="http://purl.org/dc/elements/1.1/"
   xmlns:cc="http://creativecommons.org/ns#"
   xmlns:rdf="http://www.w3.org/1999/02/22-rdf-syntax-ns#"
   xmlns:svg="http://www.w3.org/2000/svg"
   xmlns="http://www.w3.org/2000/svg"
   xmlns:sodipodi="http://sodipodi.sourceforge.net/DTD/sodipodi-0.dtd"
   xmlns:inkscape="http://www.inkscape.org/namespaces/inkscape"
   inkscape:version="1.0 (6e3e5246a0, 2020-05-07)"
   sodipodi:docname="logo_cloud.svg"
   xml:space="preserve"
   style="enable-background:new 0 0 841.9 595.3;"
   viewBox="0 0 841.9 595.3"
   y="0px"
   x="0px"
   id="Colores_Corporativos"
   version="1.1"><metadata
   id="metadata770"><rdf:RDF><cc:Work
       rdf:about=""><dc:format>image/svg+xml</dc:format><dc:type
         rdf:resource="http://purl.org/dc/dcmitype/StillImage" /></cc:Work></rdf:RDF></metadata><defs
   id="defs768" /><sodipodi:namedview
   inkscape:current-layer="Colores_Corporativos"
   inkscape:window-maximized="1"
   inkscape:window-y="0"
   inkscape:window-x="0"
   inkscape:cy="251.05117"
   inkscape:cx="420.95"
   inkscape:zoom="0.85839073"
   showgrid="false"
   id="namedview766"
   inkscape:window-height="739"
   inkscape:window-width="1360"
   inkscape:pageshadow="2"
   inkscape:pageopacity="0"
   guidetolerance="10"
   gridtolerance="10"
   objecttolerance="10"
   borderopacity="1"
   bordercolor="#666666"
   pagecolor="#ffffff" />
<style
   id="style713"
   type="text/css">
	.st0{fill:#65A428;}
	.st1{fill:#D8DA00;}
	.st2{fill:#9D9D9C;}
	.st3{fill:url(#SVGID_1_);}
	.st4{fill:url(#SVGID_2_);}
	.st5{fill:url(#SVGID_3_);}
	.st6{fill:url(#SVGID_4_);}
	.st7{fill:url(#SVGID_5_);}
	.st8{fill:url(#SVGID_6_);}
	.st9{fill:#FFFFFF;}
	.st10{fill:url(#SVGID_7_);}
	.st11{fill:url(#SVGID_8_);}
	.st12{fill:url(#SVGID_9_);}
	.st13{fill:url(#SVGID_10_);}
	.st14{fill:url(#SVGID_11_);}
	.st15{fill:url(#SVGID_12_);}
	.st16{fill:url(#SVGID_13_);}
	.st17{fill:url(#SVGID_14_);}
</style>
<g
   transform="matrix(2.1951469,0,0,2.3461154,-502.8361,-421.65726)"
   id="g763">
	<g
   id="g723">
		<path
   id="path715"
   d="m 458.6,258.1 c 0.8,0.8 1.2,1.9 1.2,3.2 V 301 c 0,4.9 -1,9 -3.1,12.2 -2.1,3.3 -4.9,5.7 -8.4,7.3 -3.6,1.6 -7.6,2.3 -12,2.3 -2.4,0 -5.2,-0.4 -8.4,-1.3 -3.2,-0.8 -5.3,-1.7 -6.2,-2.6 -1.9,-1 -2.8,-2.2 -2.8,-3.6 0,-0.4 0.1,-0.8 0.4,-1.4 0.7,-1.5 1.8,-2.3 3.3,-2.3 0.8,0 1.6,0.2 2.5,0.5 4.8,1.9 8.6,2.8 11.3,2.8 4.8,0 8.5,-1.2 11.1,-3.5 2.6,-2.3 3.8,-5.5 3.8,-9.5 V 297 c -1.3,2.3 -3.4,4.4 -6.4,6.1 -3,1.7 -6.1,2.5 -9.4,2.5 -4.2,0 -7.9,-1.1 -11.4,-3.2 -3.4,-2.1 -6.1,-5 -8.1,-8.8 -2,-3.8 -2.9,-8 -2.9,-12.7 0,-4.7 1,-8.9 2.9,-12.7 2,-3.8 4.6,-6.7 8,-8.8 3.4,-2.1 7.2,-3.2 11.2,-3.2 3.3,0 6.4,0.8 9.3,2.3 2.9,1.5 5.1,3.3 6.7,5.5 v -2.9 c 0,-1.3 0.4,-2.3 1.2,-3.2 0.8,-0.8 1.8,-1.3 3.1,-1.3 1.2,0.3 2.3,0.7 3.1,1.5 z m -14.3,37.6 c 2.3,-1.4 4.1,-3.4 5.4,-6 1.3,-2.6 1.9,-5.4 1.9,-8.6 0,-3.2 -0.6,-6.1 -1.9,-8.6 -1.3,-2.5 -3.1,-4.5 -5.4,-6 -2.3,-1.4 -4.9,-2.2 -7.9,-2.2 -2.9,0 -5.5,0.7 -7.8,2.2 -2.3,1.4 -4.1,3.4 -5.4,6 -1.3,2.6 -1.9,5.4 -1.9,8.5 0,3.1 0.6,6 1.9,8.5 1.3,2.6 3.1,4.6 5.4,6 2.3,1.4 4.9,2.2 7.8,2.2 3,0.1 5.6,-0.6 7.9,-2 z"
   class="st0" />
		<path
   id="path717"
   d="m 510.9,282.2 c -0.8,0.8 -1.8,1.1 -3,1.1 h -31.8 c 0.4,4.4 2.1,7.9 5,10.6 2.9,2.7 6.5,4 10.7,4 2.9,0 5.2,-0.4 7,-1.3 1.8,-0.8 3.4,-1.9 4.8,-3.3 0.9,-0.5 1.8,-0.8 2.6,-0.8 1,0 1.9,0.4 2.6,1.1 0.7,0.7 1,1.6 1,2.5 0,1.3 -0.6,2.4 -1.8,3.4 -1.7,1.7 -4.1,3.2 -7,4.4 -2.9,1.2 -5.8,1.8 -8.9,1.8 -4.9,0 -9.2,-1 -12.9,-3.1 -3.7,-2 -6.6,-4.9 -8.6,-8.6 -2,-3.7 -3,-7.8 -3,-12.5 0,-5.1 1,-9.5 3.1,-13.3 2.1,-3.8 4.8,-6.8 8.2,-8.8 3.4,-2 7.1,-3.1 11,-3.1 3.9,0 7.5,1 10.8,3 3.4,2 6.1,4.7 8.1,8.2 2,3.5 3.1,7.4 3.2,11.7 0.2,1.3 -0.2,2.2 -1.1,3 z m -29.5,-14.9 c -2.5,1.9 -4.1,4.8 -4.9,8.8 h 26.6 v -0.7 c -0.3,-3.2 -1.7,-5.8 -4.3,-7.9 -2.6,-2 -5.5,-3.1 -8.7,-3.1 -3.3,0 -6.2,1 -8.7,2.9 z"
   class="st0" />
		<path
   id="path719"
   d="m 560.5,300.5 c 0,1.2 -0.5,2.2 -1.4,3 -0.9,0.8 -1.9,1.2 -2.9,1.2 -1.3,0 -2.4,-0.5 -3.2,-1.4 l -17.8,-18.9 -5.4,4.9 v 11.2 c 0,1.2 -0.4,2.2 -1.2,3.1 -0.8,0.8 -1.8,1.3 -3,1.3 -1.3,0 -2.3,-0.4 -3.1,-1.3 -0.8,-0.8 -1.2,-1.9 -1.2,-3.1 v -58.2 c 0,-1.2 0.4,-2.2 1.2,-3.1 0.8,-0.8 1.9,-1.3 3.1,-1.3 1.2,0 2.2,0.4 3,1.3 0.8,0.8 1.2,1.9 1.2,3.1 V 279 l 22.1,-20.3 c 1,-0.9 2.1,-1.4 3.2,-1.4 1,0 2,0.4 2.8,1.3 0.8,0.9 1.3,1.8 1.3,2.8 0,1.2 -0.6,2.3 -1.7,3.3 l -15.6,13.9 17.3,18.8 c 0.8,0.9 1.3,2 1.3,3.1 z"
   class="st0" />
		<path
   id="path721"
   d="m 608.4,293.9 c -2.1,3.7 -5,6.7 -8.6,8.8 -3.6,2.1 -7.7,3.2 -12.1,3.2 -4.4,0 -8.4,-1.1 -12.1,-3.2 -3.6,-2.1 -6.5,-5 -8.6,-8.8 -2.1,-3.7 -3.2,-7.9 -3.2,-12.6 0,-4.7 1.1,-8.9 3.2,-12.7 2.1,-3.8 5,-6.7 8.6,-8.9 3.6,-2.1 7.7,-3.2 12.1,-3.2 4.4,0 8.4,1.1 12.1,3.2 3.6,2.1 6.5,5.1 8.6,8.9 2.1,3.8 3.2,8 3.2,12.7 0,4.6 -1.1,8.8 -3.2,12.6 z M 601,272.5 c -1.4,-2.6 -3.2,-4.5 -5.5,-6 -2.3,-1.4 -4.9,-2.1 -7.7,-2.1 -2.8,0 -5.4,0.7 -7.7,2.1 -2.3,1.4 -4.2,3.4 -5.5,6 -1.4,2.6 -2,5.5 -2,8.7 0,3.2 0.7,6.1 2,8.6 1.4,2.5 3.2,4.5 5.5,5.9 2.3,1.4 4.9,2.1 7.7,2.1 2.8,0 5.4,-0.7 7.7,-2.1 2.3,-1.4 4.2,-3.4 5.5,-5.9 1.4,-2.5 2,-5.4 2,-8.6 0,-3.2 -0.7,-6.1 -2,-8.7 z"
   class="st0" />
	</g>
	<path
   id="path725"
   d="m 433.1,349.8 c 1.5,0.4 2.8,0.9 3.7,1.5 0.9,0.6 1.4,1.3 1.4,2 0,0.3 -0.1,0.6 -0.3,0.8 -0.2,0.2 -0.5,0.3 -0.8,0.3 -0.3,0 -0.6,-0.1 -0.8,-0.2 -0.2,-0.1 -0.4,-0.3 -0.7,-0.6 -0.5,-0.6 -1,-1 -1.5,-1.3 -1.4,-0.6 -3.3,-1 -5.9,-1 -2.2,0 -4.2,0.6 -6.1,1.7 -1.9,1.1 -3.3,2.7 -4.4,4.7 -1.1,2 -1.6,4.1 -1.6,6.5 0,2.4 0.5,4.7 1.5,6.6 1,2 2.4,3.5 4.3,4.6 1.9,1.1 3.9,1.7 6.3,1.7 1.5,0 2.7,-0.1 3.6,-0.4 0.9,-0.3 1.8,-0.6 2.6,-1.1 0.6,-0.4 1.1,-0.8 1.6,-1.3 0.2,-0.2 0.4,-0.4 0.6,-0.5 0.2,-0.1 0.4,-0.2 0.6,-0.2 0.3,0 0.5,0.1 0.7,0.3 0.2,0.2 0.3,0.4 0.3,0.7 0,0.5 -0.4,1.2 -1.3,1.9 -0.9,0.7 -2.1,1.4 -3.6,1.9 -1.5,0.5 -3.3,0.8 -5.2,0.8 -2.8,0 -5.2,-0.6 -7.4,-2 -2.2,-1.3 -3.8,-3.1 -5,-5.4 -1.2,-2.3 -1.8,-4.9 -1.8,-7.7 0,-2.7 0.6,-5.2 1.8,-7.5 1.2,-2.3 2.9,-4.1 5.1,-5.5 2.2,-1.4 4.7,-2.1 7.5,-2.1 1.6,0.3 3.2,0.5 4.8,0.8 z"
   class="st2" />
	<path
   id="path727"
   d="m 445.2,378.5 c -0.2,0.2 -0.5,0.3 -0.8,0.3 -0.3,0 -0.6,-0.1 -0.8,-0.3 -0.2,-0.2 -0.3,-0.5 -0.3,-0.8 v -40.2 c 0,-0.3 0.1,-0.6 0.3,-0.8 0.2,-0.2 0.5,-0.3 0.8,-0.3 0.3,0 0.6,0.1 0.8,0.3 0.2,0.2 0.3,0.5 0.3,0.8 v 40.2 c 0.1,0.3 0,0.5 -0.3,0.8 z"
   class="st2" />
	<path
   id="path729"
   d="m 476.9,372 c -1.2,2.3 -2.9,4.1 -5.1,5.4 -2.2,1.3 -4.6,2 -7.2,2 -2.6,0 -5,-0.7 -7.2,-2 -2.2,-1.3 -3.9,-3.1 -5.1,-5.4 -1.2,-2.3 -1.9,-4.8 -1.9,-7.6 0,-2.8 0.6,-5.4 1.9,-7.7 1.2,-2.3 2.9,-4.1 5.1,-5.4 2.1,-1.3 4.6,-2 7.2,-2 2.6,0 5,0.7 7.2,2 2.2,1.3 3.9,3.1 5.1,5.4 1.2,2.3 1.8,4.9 1.8,7.7 0.1,2.8 -0.5,5.3 -1.8,7.6 z M 475,357.8 c -1,-2 -2.4,-3.5 -4.2,-4.6 -1.8,-1.1 -3.8,-1.7 -6.1,-1.7 -2.2,0 -4.2,0.6 -6.1,1.7 -1.8,1.1 -3.2,2.7 -4.3,4.6 -1,2 -1.5,4.2 -1.5,6.6 0,2.4 0.5,4.6 1.5,6.5 1,2 2.5,3.5 4.3,4.6 1.8,1.1 3.8,1.7 6.1,1.7 2.3,0 4.3,-0.6 6.1,-1.7 1.8,-1.1 3.2,-2.6 4.2,-4.6 1,-2 1.5,-4.2 1.5,-6.6 0,-2.4 -0.5,-4.6 -1.5,-6.5 z"
   class="st2" />
	<path
   id="path731"
   d="m 506.5,350.5 c 0.2,0.2 0.3,0.5 0.3,0.8 V 368 c 0,3.6 -1,6.4 -3.1,8.3 -2,1.9 -4.8,2.8 -8.3,2.8 -3.5,0 -6.3,-0.9 -8.3,-2.8 -2,-1.9 -3,-4.7 -3,-8.3 v -16.7 c 0,-0.3 0.1,-0.6 0.3,-0.8 0.2,-0.2 0.5,-0.3 0.8,-0.3 0.3,0 0.6,0.1 0.8,0.3 0.2,0.2 0.3,0.5 0.3,0.8 V 368 c 0,2.9 0.8,5.1 2.4,6.6 1.6,1.5 3.8,2.3 6.7,2.3 2.9,0 5.1,-0.8 6.7,-2.3 1.6,-1.5 2.4,-3.8 2.4,-6.6 v -16.7 c 0,-0.3 0.1,-0.6 0.3,-0.8 0.2,-0.2 0.5,-0.3 0.8,-0.3 0.3,0 0.7,0.1 0.9,0.3 z"
   class="st2" />
	<path
   id="path733"
   d="m 538.3,336.7 c 0.2,0.2 0.3,0.5 0.3,0.8 v 40.2 c 0,0.3 -0.1,0.6 -0.3,0.8 -0.2,0.2 -0.5,0.3 -0.8,0.3 -0.3,0 -0.6,-0.1 -0.8,-0.3 -0.2,-0.2 -0.3,-0.5 -0.3,-0.8 v -5.5 c -0.9,2 -2.4,3.7 -4.4,5.1 -2,1.4 -4.2,2.1 -6.7,2.1 -2.5,0 -4.7,-0.7 -6.8,-2 -2,-1.3 -3.6,-3.1 -4.8,-5.4 -1.2,-2.3 -1.8,-4.9 -1.8,-7.7 0,-2.8 0.6,-5.4 1.8,-7.7 1.2,-2.3 2.8,-4.1 4.8,-5.4 2,-1.3 4.3,-2 6.8,-2 2.4,0 4.6,0.7 6.6,2 2,1.3 3.5,3.1 4.4,5.2 v -19 c 0,-0.3 0.1,-0.6 0.3,-0.8 0.2,-0.2 0.5,-0.3 0.8,-0.3 0.3,0 0.7,0.2 0.9,0.4 z m -7.1,38.8 c 1.7,-1.1 3,-2.6 4,-4.6 1,-2 1.4,-4.2 1.4,-6.6 0,-2.4 -0.5,-4.6 -1.4,-6.6 -1,-2 -2.3,-3.5 -4,-4.6 -1.7,-1.1 -3.6,-1.7 -5.7,-1.7 -2.1,0 -3.9,0.6 -5.7,1.7 -1.7,1.1 -3,2.6 -4,4.6 -1,2 -1.5,4.2 -1.5,6.6 0,2.4 0.5,4.6 1.5,6.6 1,2 2.3,3.5 4,4.6 1.7,1.1 3.6,1.7 5.7,1.7 2.1,0 4,-0.5 5.7,-1.7 z"
   class="st2" />
	<polygon
   id="polygon735"
   points="328.2,379.4 328.2,350.3 319.8,351.4 305.5,351.3 297.5,350.3 297.5,379.4 313,371.5 "
   class="st0" />
	<radialGradient
   gradientUnits="userSpaceOnUse"
   r="66.445999"
   cy="283.62869"
   cx="312.8833"
   id="SVGID_1_">
		<stop
   id="stop737"
   style="stop-color:#D8DA00"
   offset="0" />
		<stop
   id="stop739"
   style="stop-color:#C5D31E"
   offset="1" />
	</radialGradient>
	<path
   style="fill:url(#SVGID_1_)"
   id="path742"
   d="m 250.5,297.4 c 0.9,0.8 1.8,1.6 2.8,2.2 -1,-0.7 -2,-1.4 -2.8,-2.2 z"
   class="st3" />
	<radialGradient
   gradientUnits="userSpaceOnUse"
   r="848.9491"
   cy="-533.58258"
   cx="312.88321"
   id="SVGID_2_">
		<stop
   id="stop744"
   style="stop-color:#D8DA00"
   offset="0" />
		<stop
   id="stop746"
   style="stop-color:#C5D31E"
   offset="1" />
	</radialGradient>
	<path
   style="fill:url(#SVGID_2_)"
   id="path749"
   d="m 376.2,313.3 c -4.4,2.1 -9.2,3.2 -14.4,3.2 -18.5,0 -33.6,-15.1 -33.6,-33.6 0,-18.5 15.1,-33.6 33.6,-33.6 0.4,0 0.8,0 1.3,0 l -13,-33.4 h -74.5 l -13,33.4 c 0.4,0 0.8,0 1.3,0 18.5,0 33.6,15.1 33.6,33.6 0,18.5 -15.1,33.6 -33.6,33.6 -5.1,0 -10,-1.2 -14.4,-3.2 l -1.8,30.5 49.8,6.5 7.9,1 14.3,0.1 8.4,-1.1 49.8,-6.5 z m -79.6,23.2 c -3,0 -5.5,-2.4 -5.5,-5.5 0,-3 2.4,-5.5 5.5,-5.5 3,0 5.5,2.4 5.5,5.5 0,3.1 -2.4,5.5 -5.5,5.5 z m 32.5,0 c -3,0 -5.5,-2.4 -5.5,-5.5 0,-3 2.4,-5.5 5.5,-5.5 3,0 5.5,2.4 5.5,5.5 0,3.1 -2.5,5.5 -5.5,5.5 z"
   class="st4" />
	<path
   id="path751"
   d="m 297.5,282.9 c 0,-18.5 -15.1,-33.6 -33.6,-33.6 -0.4,0 -0.8,0 -1.3,0 -17.9,0.7 -32.3,15.5 -32.3,33.6 0,13.4 7.9,25 19.2,30.4 4.4,2.1 9.2,3.2 14.4,3.2 18.5,0 33.6,-15.1 33.6,-33.6 z m -36.4,19.6 c -0.3,0 -0.7,-0.1 -1,-0.2 -0.4,-0.1 -0.8,-0.2 -1.2,-0.3 -0.2,-0.1 -0.4,-0.1 -0.6,-0.2 -0.5,-0.1 -0.9,-0.3 -1.4,-0.5 -0.1,0 -0.3,-0.1 -0.4,-0.1 -0.5,-0.2 -1,-0.4 -1.5,-0.7 -0.1,0 -0.1,-0.1 -0.2,-0.1 -0.5,-0.3 -1,-0.6 -1.5,-0.9 0,0 0,0 -0.1,0 -1,-0.6 -2,-1.4 -2.8,-2.2 -3.9,-3.6 -6.4,-8.8 -6.4,-14.5 0,-8.4 5.3,-15.6 12.7,-18.5 0.6,-0.2 1.1,-0.4 1.7,-0.6 0,0 0,0 0,0 0.6,-0.2 1.1,-0.3 1.7,-0.4 0.1,0 0.3,0 0.4,-0.1 0.5,-0.1 0.9,-0.2 1.4,-0.2 0.6,-0.1 1.3,-0.1 1.9,-0.1 10.9,0 19.8,8.9 19.8,19.8 0,10.9 -8.9,19.8 -19.8,19.8 -0.7,0 -1.3,0 -2,-0.1 -0.2,0.2 -0.4,0.1 -0.7,0.1 z"
   class="st0" />
	<rect
   id="rect753"
   height="18.299999"
   width="13.8"
   class="st0"
   y="273.70001"
   x="256.39999" />
	<rect
   id="rect755"
   height="18.299999"
   width="13.8"
   class="st0"
   y="273.70001"
   x="355" />
	<circle
   id="circle757"
   r="5.5"
   cy="331.10001"
   cx="296.60001"
   class="st0" />
	<circle
   id="circle759"
   r="5.5"
   cy="331.10001"
   cx="329.10001"
   class="st0" />
	<path
   id="path761"
   d="m 395.5,282.9 c 0,-18.1 -14.4,-32.9 -32.3,-33.6 -0.4,0 -0.8,0 -1.3,0 -18.5,0 -33.6,15.1 -33.6,33.6 0,18.5 15.1,33.6 33.6,33.6 5.1,0 10,-1.2 14.4,-3.2 11.3,-5.4 19.2,-17 19.2,-30.4 z m -20.2,14.5 c -0.9,0.8 -1.8,1.6 -2.8,2.2 0,0 0,0 -0.1,0 -0.5,0.3 -1,0.6 -1.5,0.9 -0.1,0 -0.1,0.1 -0.2,0.1 -0.5,0.2 -1,0.5 -1.5,0.7 -0.1,0.1 -0.3,0.1 -0.4,0.1 -0.4,0.2 -0.9,0.3 -1.3,0.5 -0.2,0.1 -0.4,0.1 -0.6,0.2 -0.4,0.1 -0.8,0.2 -1.2,0.3 -0.3,0.1 -0.7,0.1 -1,0.2 -0.3,0 -0.6,0.1 -0.9,0.1 -0.6,0.1 -1.3,0.1 -2,0.1 -10.9,0 -19.8,-8.9 -19.8,-19.8 0,-10.9 8.9,-19.8 19.8,-19.8 0.6,0 1.3,0 1.9,0.1 0.5,0 0.9,0.1 1.4,0.2 0.1,0 0.3,0 0.4,0.1 0.6,0.1 1.1,0.2 1.7,0.4 0,0 0,0 0,0 0.6,0.2 1.1,0.4 1.7,0.6 7.4,2.9 12.7,10.1 12.7,18.5 0.1,5.5 -2.4,10.7 -6.3,14.3 z"
   class="st0" />
</g>
</svg>
