<?xml version="1.0" encoding="UTF-8" standalone="no"?>
<svg
   xmlns:dc="http://purl.org/dc/elements/1.1/"
   xmlns:cc="http://creativecommons.org/ns#"
   xmlns:rdf="http://www.w3.org/1999/02/22-rdf-syntax-ns#"
   xmlns:svg="http://www.w3.org/2000/svg"
   xmlns="http://www.w3.org/2000/svg"
   xmlns:xlink="http://www.w3.org/1999/xlink"
   xmlns:sodipodi="http://sodipodi.sourceforge.net/DTD/sodipodi-0.dtd"
   xmlns:inkscape="http://www.inkscape.org/namespaces/inkscape"
   inkscape:version="1.0 (6e3e5246a0, 2020-05-07)"
   height="41.298347"
   width="105.37672"
   sodipodi:docname="new-geko-logotipo.svg"
   version="1.1"
   viewBox="0 0 105.37672 41.298347"
   data-name="Capa 1"
   id="Capa_1">
  <metadata
     id="metadata158">
    <rdf:RDF>
      <cc:Work
         rdf:about="">
        <dc:format>image/svg+xml</dc:format>
        <dc:type
           rdf:resource="http://purl.org/dc/dcmitype/StillImage" />
        <dc:title>Mesa de trabajo 2 copia</dc:title>
      </cc:Work>
    </rdf:RDF>
  </metadata>
  <sodipodi:namedview
     inkscape:current-layer="Capa_1"
     inkscape:window-maximized="1"
     inkscape:window-y="0"
     inkscape:window-x="0"
     inkscape:cy="7.6795125"
     inkscape:cx="17.512494"
     inkscape:zoom="3.8938356"
     showgrid="false"
     id="namedview156"
     inkscape:window-height="739"
     inkscape:window-width="1360"
     inkscape:pageshadow="2"
     inkscape:pageopacity="0"
     guidetolerance="10"
     gridtolerance="10"
     objecttolerance="10"
     borderopacity="1"
     bordercolor="#666666"
     pagecolor="#ffffff" />
  <defs
     id="defs121">
    <style
       id="style103">.cls-1{fill:none;}.cls-2{fill:#65a428;}.cls-3{clip-path:url(#clip-path);}.cls-4{fill:url(#Degradado_sin_nombre_2);}.cls-5{clip-path:url(#clip-path-2);}.cls-6{fill:url(#Degradado_sin_nombre_2-2);}</style>
    <clipPath
       id="clip-path">
      <path
         id="path105"
         d="m 18.23,64.13 a 15.36,15.36 0 0 1 -2.17,-1.68 15.15,15.15 0 0 0 2.17,1.68"
         class="cls-1" />
    </clipPath>
    <radialGradient
       gradientUnits="userSpaceOnUse"
       gradientTransform="matrix(50.62,0,0,-50.62,10709.62,46151.48)"
       r="1"
       cy="910.65997"
       cx="-210.3"
       id="Degradado_sin_nombre_2">
      <stop
         id="stop108"
         stop-color="#d8da00"
         offset="0" />
      <stop
         id="stop110"
         stop-color="#d5d905"
         offset="0.36" />
      <stop
         id="stop112"
         stop-color="#ccd613"
         offset="0.77" />
      <stop
         id="stop114"
         stop-color="#c5d31e"
         offset="1" />
    </radialGradient>
    <clipPath
       id="clip-path-2">
      <path
         id="path117"
         d="m 47.08,88.09 a 4.16,4.16 0 1 1 4.16,4.16 4.16,4.16 0 0 1 -4.16,-4.16 m 24.76,0 A 4.16,4.16 0 1 1 76,92.25 4.16,4.16 0 0 1 71.84,88.09 M 35.24,0.36 25.34,25.82 h 1 a 25.6,25.6 0 1 1 -11,48.74 L 14,97.81 l 37.93,4.93 6.05,0.79 h 10.93 l 6.39,-0.83 37.93,-4.93 -1.36,-23.27 a 25.6,25.6 0 1 1 -11,-48.74 h 1 L 92,0.36 Z"
         class="cls-1" />
    </clipPath>
    <radialGradient
       xlink:href="#Degradado_sin_nombre_2"
       gradientTransform="matrix(646.77,0,0,-646.77,135305.2,582064.91)"
       r="1"
       cy="900.83002"
       cx="-209.10001"
       id="Degradado_sin_nombre_2-2" />
    <radialGradient
       r="1"
       cy="910.65997"
       cx="-210.3"
       gradientTransform="matrix(50.62,0,0,-50.62,10709.62,46151.48)"
       gradientUnits="userSpaceOnUse"
       id="radialGradient160"
       xlink:href="#Degradado_sin_nombre_2"
       inkscape:collect="always" />
  </defs>
  <title
     id="title123">Mesa de trabajo 2 copia</title>
  <path
     style="stroke-width:0.346808"
     id="path125"
     d="m 63.092028,10.669404 a 1.200751,1.0974432 0 0 1 0.33737,0.808991 v 10.039454 a 6.2069031,5.6728865 0 0 1 -0.85975,3.09339 5.1730239,4.727958 0 0 1 -2.33258,1.83682 8.1513218,7.4500152 0 0 1 -3.3193,0.59348 9.3956047,8.5872449 0 0 1 -2.3362,-0.33156 q -1.33497,-0.33155 -1.70862,-0.66311 -0.77269,-0.3647 -0.77269,-0.91177 a 1.1427087,1.0443946 0 0 1 0.10158,-0.36471 0.94318812,0.86204003 0 0 1 0.92504,-0.57027 1.8936315,1.7307111 0 0 1 0.70014,0.13593 9.3919769,8.5839294 0 0 0 3.11977,0.70621 q 1.99521,0 3.05811,-0.87861 a 3.3773389,3.0867664 0 0 0 1.04476,-2.40045 v -1.22676 a 4.3531758,3.9786463 0 0 1 -1.75941,1.52847 5.223811,4.7743755 0 0 1 -2.59376,0.6399 5.8912979,5.3844347 0 0 1 -3.14517,-0.79904 6.0799355,5.5568426 0 0 1 -2.23463,-2.22473 7.4874624,6.8432716 0 0 1 -0.8126,-3.20613 7.4874624,6.8432716 0 0 1 0.8126,-3.206123 6.116212,5.589998 0 0 1 2.22374,-2.224727 5.8042344,5.3048617 0 0 1 3.1089,-0.799045 5.6845221,5.195449 0 0 1 4.40033,1.966115 v -0.726103 a 1.2333998,1.1272832 0 0 1 0.32287,-0.799045 1.088294,0.99466153 0 0 1 0.84886,-0.331554 1.1644746,1.0642879 0 0 1 0.86338,0.308345 m -3.94688,9.499017 a 4.0230599,3.6769323 0 0 0 1.48371,-1.50526 5.2056727,4.7577978 0 0 0 0.53689,-2.1783 5.1294921,4.6881715 0 0 0 -0.53689,-2.168364 4.1318894,3.7763984 0 0 0 -1.48371,-1.498624 3.9904112,3.6470925 0 0 0 -2.17659,-0.547064 3.9359965,3.5973594 0 0 0 -2.14393,0.547064 4.1064958,3.7531896 0 0 0 -1.48371,1.518517 5.4414698,4.9733078 0 0 0 0,4.310201 4.1064958,3.7531896 0 0 0 1.48371,1.51852 3.9359965,3.5973594 0 0 0 2.14756,0.54706 4.0448258,3.6968255 0 0 0 2.17659,-0.53711"
     class="cls-2" />
  <path
     style="stroke-width:0.346808"
     id="path127"
     d="m 77.559088,16.740159 a 1.1971233,1.0941277 0 0 1 -0.82348,0.28513 h -8.79342 a 4.3531758,3.9786463 0 0 0 1.38576,2.66901 4.2407187,3.8758646 0 0 0 2.95653,0.99466 4.6325046,4.2339427 0 0 0 1.94805,-0.33155 4.8900674,4.469346 0 0 0 1.32772,-0.80236 1.4111545,1.2897445 0 0 1 0.72553,-0.20556 0.94681577,0.86535557 0 0 1 0.72553,0.27518 0.97946452,0.89519542 0 0 1 0.28658,0.63991 1.2333998,1.1272832 0 0 1 -0.50061,0.86866 5.8840426,5.3778036 0 0 1 -1.92265,1.11734 6.3121049,5.7690372 0 0 1 -2.44504,0.45755 7.2262719,6.6045529 0 0 1 -3.55872,-0.77584 5.9130638,5.4043278 0 0 1 -2.37974,-2.15842 7.0340066,6.4288293 0 0 1 -0.83798,-3.14976 7.5926641,6.9394222 0 0 1 0.85975,-3.36527 6.2431796,5.7060419 0 0 1 2.2709,-2.224726 5.8513938,5.3479637 0 0 1 6.02916,-0.02321 6.2649455,5.7259351 0 0 1 2.2455,2.075528 6.4862319,5.928183 0 0 1 0.87427,2.967407 1.0665281,0.97476838 0 0 1 -0.36276,0.696271 m -8.17672,-3.776407 a 3.8670712,3.5343641 0 0 0 -1.34948,2.224727 h 7.36412 v -0.182354 a 3.0508507,2.7883679 0 0 0 -1.18624,-1.989323 3.7546142,3.4315825 0 0 0 -2.40876,-0.775837 3.8598159,3.5277331 0 0 0 -2.41964,0.722787"
     class="cls-2" />
  <path
     style="stroke-width:0.346808"
     id="path129"
     d="m 91.242568,21.381909 a 1.0665281,0.97476838 0 0 1 -0.38816,0.76589 1.2225168,1.1173365 0 0 1 -0.8126,0.30834 1.0665281,0.97476838 0 0 1 -0.87426,-0.3647 l -4.90095,-4.77107 -1.49821,1.23339 v 2.82815 a 1.1753575,1.0742345 0 0 1 -0.33737,0.77583 1.1136875,1.0178703 0 0 1 -0.83437,0.33156 1.1427087,1.0443946 0 0 1 -0.85975,-0.33156 1.1789851,1.07755 0 0 1 -0.33737,-0.77583 V 6.6874416 a 1.1789851,1.07755 0 0 1 0.33737,-0.775837 1.1427087,1.0443946 0 0 1 0.85975,-0.331554 1.1136875,1.0178703 0 0 1 0.83437,0.331554 1.1789851,1.07755 0 0 1 0.33737,0.775837 v 9.2636154 l 6.1017,-5.129139 a 1.3168357,1.2035405 0 0 1 0.87426,-0.331553 1.0592728,0.96813726 0 0 1 0.77269,0.331553 1.088294,0.99466153 0 0 1 0.36276,0.696264 1.1608469,1.0609723 0 0 1 -0.47522,0.822253 l -4.32416,3.497893 4.7885,4.744541 a 1.2551657,1.1471763 0 0 1 0.36277,0.79904"
     class="cls-2" />
  <path
     style="stroke-width:0.346808"
     id="path131"
     d="m 104.49799,19.694299 a 6.3447538,5.798877 0 0 1 -2.38337,2.21478 6.7909543,6.2066882 0 0 1 -6.663992,0 6.3374985,5.7922459 0 0 1 -2.38336,-2.21478 6.9795919,6.3790962 0 0 1 -0.87426,-3.19286 7.1210701,6.5084022 0 0 1 0.87426,-3.216075 6.2975943,5.7557749 0 0 1 2.38336,-2.234673 6.7945819,6.2100037 0 0 1 6.667622,0 6.3048496,5.762406 0 0 1 2.38336,2.234673 7.1246977,6.5117178 0 0 1 0.87427,3.216075 6.9832195,6.3824118 0 0 1 -0.87427,3.19286 m -2.0605,-5.397697 a 4.1754211,3.8161849 0 0 0 -1.52361,-1.505254 4.1754211,3.8161849 0 0 0 -4.269742,0 4.1717935,3.8128694 0 0 0 -1.52361,1.505254 5.0787051,4.641754 0 0 0 -0.56229,2.201517 4.9408545,4.5157636 0 0 0 0.56229,2.16836 4.1863041,3.8261315 0 0 0 1.52361,1.49531 4.1754211,3.8161849 0 0 0 4.269742,0 4.1899317,3.8294471 0 0 0 1.52361,-1.49531 4.9408545,4.5157636 0 0 0 0.56228,-2.16836 5.0787051,4.641754 0 0 0 -0.56228,-2.201517"
     class="cls-2" />
  <polygon
     transform="matrix(0.36276465,0,0,0.33155385,-0.25756211,-0.11935939)"
     id="polygon133"
     points="75.31,124.92 75.31,102.74 68.92,103.57 57.98,103.53 51.93,102.74 51.93,124.92 63.68,118.87 "
     class="cls-2" />
  <g
     transform="matrix(0.36276465,0,0,0.33155385,-0.25756211,-0.11935939)"
     id="g137"
     clip-path="url(#clip-path)"
     class="cls-3">
    <rect
       style="fill:url(#radialGradient160)"
       id="rect135"
       height="1.6799999"
       width="2.1700001"
       y="62.450001"
       x="16.059999"
       class="cls-4" />
  </g>
  <g
     transform="matrix(0.36276465,0,0,0.33155385,-0.25756211,-0.11935939)"
     id="g141"
     clip-path="url(#clip-path-2)"
     class="cls-5">
    <rect
       style="fill:url(#Degradado_sin_nombre_2-2)"
       id="rect139"
       height="103.21"
       width="99.239998"
       y="0.36000001"
       x="14"
       class="cls-6" />
  </g>
  <path
     style="stroke-width:0.346808"
     id="path143"
     d="M 18.573548,16.922509 A 9.2976579,8.4977254 0 0 0 9.2867679,8.4347296 h -0.36276 a 9.2867753,8.4877788 0 1 0 9.6495401,8.4877794 m -10.0739701,4.94679 c -0.0943,0 -0.18501,-0.0232 -0.27933,-0.0398 -0.0943,-0.0166 -0.21766,-0.0464 -0.32286,-0.0729 l -0.17413,-0.0398 c -0.12696,-0.0331 -0.25031,-0.0762 -0.36276,-0.11937 l -0.10521,-0.0365 c -0.13785,-0.0497 -0.27207,-0.10942 -0.40266,-0.16909 l -0.0508,-0.0232 q -0.21041,-0.0995 -0.41356,-0.21551 v 0 a 5.4632356,4.9932011 0 0 1 0.95408,-8.882329 c 0.15236,-0.05305 0.30834,-0.102781 0.46796,-0.145884 v 0 q 0.23217,-0.05968 0.4716,-0.102782 l 0.12334,-0.01658 c 0.12696,-0.01989 0.25031,-0.03979 0.36276,-0.04974 0.11245,-0.01 0.36277,-0.02321 0.52964,-0.02321 a 5.4777462,5.0064632 0 1 1 0,10.009615 c -0.18501,0 -0.36277,0 -0.54415,-0.0265 -0.0834,0 -0.16324,-0.0232 -0.24668,-0.0331"
     class="cls-2" />
  <rect
     style="stroke-width:0.346808"
     id="rect145"
     height="4.6185451"
     width="3.8126566"
     y="14.604941"
     x="7.2153783"
     class="cls-2" />
  <rect
     style="stroke-width:0.346808"
     id="rect147"
     height="4.6185451"
     width="3.8126566"
     y="14.614898"
     x="34.44812"
     class="cls-2" />
  <path
     style="stroke-width:0.346808"
     id="path149"
     d="m 18.330498,27.707949 a 1.5091009,1.379264 0 1 0 1.5091,1.37927 1.5091009,1.379264 0 0 0 -1.5091,-1.37927"
     class="cls-2" />
  <path
     style="stroke-width:0.346808"
     id="path151"
     d="m 27.312548,27.707949 a 1.5091009,1.379264 0 1 0 1.50911,1.37927 1.5091009,1.379264 0 0 0 -1.50911,-1.37927"
     class="cls-2" />
  <path
     style="stroke-width:0.346808"
     id="path153"
     d="m 45.643048,16.922509 a 9.2976579,8.4977254 0 0 0 -8.93852,-8.4811474 h -0.36277 a 9.2867753,8.4877788 0 1 0 9.28678,8.4877774 m -5.55756,3.65704 a 5.521278,5.0462497 0 0 1 -0.7872,0.55701 v 0 c -0.13422,0.0762 -0.27207,0.1492 -0.41355,0.21551 l -0.0508,0.0232 c -0.13059,0.0597 -0.26482,0.11605 -0.40267,0.1691 l -0.10519,0.0365 c -0.12334,0.0431 -0.24669,0.0828 -0.36277,0.11935 l -0.17775,0.0431 c -0.10884,0.0265 -0.21404,0.053 -0.32286,0.0729 -0.10884,0.0199 -0.18501,0.0265 -0.27934,0.0398 -0.0943,0.0132 -0.16324,0.0265 -0.24667,0.0331 -0.17776,0 -0.36277,0.0265 -0.54415,0.0265 a 5.4777462,5.0064632 0 0 1 0,-10.009615 c 0.17776,0 0.36277,0 0.52964,0.02321 0.16687,0.02321 0.25393,0.02984 0.36276,0.04974 l 0.12334,0.01658 c 0.15962,0.02984 0.3156,0.06299 0.46796,0.102781 v 0 q 0.23943,0.06299 0.46797,0.145884 a 5.459608,4.9898855 0 0 1 1.7449,8.32531"
     class="cls-2" />
</svg>
